<?xml version="1.0" standalone="no"?>
<!DOCTYPE svg PUBLIC "-//W3C//DTD SVG 20010904//EN"
 "http://www.w3.org/TR/2001/REC-SVG-20010904/DTD/svg10.dtd">
<svg version="1.0" xmlns="http://www.w3.org/2000/svg"
 width="500.000000pt" height="500.000000pt" viewBox="0 0 500.000000 500.000000"
 preserveAspectRatio="xMidYMid meet">

<g transform="translate(0.000000,500.000000) scale(0.100000,-0.100000)"
fill="#000000" stroke="none">
<path d="M2228 4511 c-20 -4 -52 -20 -72 -34 -40 -31 -46 -33 -46 -11 0 12
-10 14 -52 12 l-53 -3 1 -35 c1 -37 16 -153 34 -255 5 -33 17 -110 26 -172
l16 -111 57 5 c31 3 58 7 60 9 2 1 -4 44 -13 95 -8 51 -14 95 -12 97 2 2 18
-4 35 -12 61 -32 156 -13 214 42 47 44 60 79 59 158 -1 118 -53 190 -152 213
-50 12 -50 12 -102 2z m103 -131 c57 -59 44 -161 -24 -193 -47 -23 -68 -21
-108 6 -63 42 -75 139 -23 190 44 44 112 43 155 -3z"/>
<path d="M2660 4494 c-141 -61 -174 -251 -63 -356 73 -70 234 -88 308 -34 19
13 18 15 -9 50 -22 30 -30 34 -46 26 -31 -16 -123 -12 -150 7 -34 23 -49 44
-50 67 0 21 12 20 210 -8 86 -13 96 -12 108 3 28 33 -6 159 -55 203 -59 53
-180 73 -253 42z m169 -101 c29 -27 46 -78 26 -78 -44 1 -195 29 -195 37 0 65
113 92 169 41z"/>
<path d="M3113 4403 c-3 -10 -18 -49 -34 -88 -87 -220 -109 -278 -107 -281 2
-1 27 -12 56 -23 l53 -21 8 23 c88 229 97 243 163 240 23 0 51 -3 61 -5 14 -2
23 8 38 44 l18 47 -35 11 c-33 11 -58 9 -100 -7 -14 -5 -16 -2 -12 20 4 22 0
27 -36 41 -53 20 -65 20 -73 -1z"/>
<path d="M1709 4363 c-45 -7 -132 -66 -163 -110 -25 -36 -29 -51 -29 -110 0
-105 46 -175 141 -213 67 -26 186 4 250 63 53 49 81 138 63 204 -32 117 -142
187 -262 166z m79 -113 c40 -25 72 -75 72 -115 0 -74 -74 -128 -144 -105 -42
13 -62 35 -80 86 -19 55 2 107 53 134 46 24 59 24 99 0z"/>
<path d="M1198 4252 c-21 -15 -38 -31 -38 -36 0 -6 240 -332 336 -455 9 -12
19 -9 58 19 25 18 46 35 46 36 0 11 -343 459 -353 461 -7 2 -29 -10 -49 -25z"/>
<path d="M1090 3919 c-82 -33 -150 -131 -150 -217 0 -29 7 -67 16 -85 21 -42
71 -95 108 -114 40 -21 133 -20 179 2 81 38 157 139 157 210 0 35 0 35 -44 35
-42 0 -44 -1 -50 -35 -8 -40 -46 -90 -87 -110 -32 -17 -85 -20 -94 -5 -6 9 44
70 164 202 43 47 43 49 26 68 -46 51 -159 75 -225 49z m110 -103 c0 -8 -21
-38 -47 -67 -27 -28 -54 -60 -61 -70 -28 -39 -52 -17 -52 46 0 24 9 45 31 70
28 31 37 35 80 35 36 0 49 -4 49 -14z"/>
<path d="M3465 3910 c-79 -32 -60 -140 24 -140 48 0 71 24 71 73 0 31 -5 41
-32 57 -37 22 -35 22 -63 10z"/>
<path d="M4100 3857 c-25 -18 -127 -85 -228 -151 -114 -74 -179 -123 -175
-130 4 -6 42 -65 86 -131 84 -127 135 -188 179 -211 86 -45 198 31 198 134 0
28 0 29 53 24 68 -5 114 24 135 85 12 37 12 49 -1 92 -13 43 -184 322 -197
320 -3 0 -25 -15 -50 -32z m94 -199 c69 -108 59 -164 -27 -156 -28 3 -39 14
-85 82 l-53 79 48 32 c26 18 53 33 60 34 6 1 32 -31 57 -71z m-186 -126 c61
-93 70 -123 48 -156 -39 -60 -95 -37 -162 67 -26 39 -47 77 -48 84 -1 11 87
79 105 82 4 1 29 -34 57 -77z"/>
<path d="M791 3578 c-11 -26 -21 -52 -21 -58 0 -7 35 -51 77 -99 42 -47 89
-99 103 -115 l25 -28 -110 6 c-60 4 -133 9 -160 12 l-50 6 -27 -56 -28 -56 28
0 c15 0 79 -4 142 -9 63 -5 154 -12 202 -16 l87 -6 26 50 c14 28 25 55 25 61
0 6 -57 76 -127 157 -71 80 -138 157 -149 171 l-22 26 -21 -46z"/>
<path d="M4298 3227 c-16 -13 -28 -26 -28 -30 0 -3 13 -26 29 -49 41 -60 49
-116 21 -151 -12 -15 -27 -27 -35 -27 -7 0 -24 35 -40 85 -35 112 -66 145
-137 145 -44 0 -54 -4 -84 -34 -31 -31 -34 -40 -34 -91 0 -67 20 -115 63 -151
29 -24 29 -25 8 -31 -13 -3 -20 -11 -17 -19 3 -7 8 -29 12 -48 8 -44 13 -48
50 -36 16 6 76 24 134 40 58 17 116 38 129 48 66 48 85 120 57 214 -16 55 -71
149 -91 155 -5 1 -22 -8 -37 -20z m-133 -160 c8 -13 21 -44 29 -70 13 -44 13
-48 -4 -57 -28 -15 -44 -12 -73 10 -36 29 -52 87 -32 117 20 30 60 30 80 0z"/>
<path d="M695 3081 c-104 -26 -168 -112 -168 -224 0 -64 20 -112 63 -155 80
-81 215 -85 298 -8 63 57 97 187 71 267 -19 55 -29 61 -66 38 -36 -23 -39 -35
-22 -73 25 -54 -27 -152 -90 -171 -28 -8 -28 -23 13 190 13 66 20 123 17 126
-10 12 -85 18 -116 10z m29 -109 c2 -4 -2 -41 -10 -82 -25 -137 -26 -139 -69
-95 -37 36 -36 111 3 147 35 33 66 46 76 30z"/>
<path d="M4195 2744 c-78 -40 -115 -110 -115 -214 0 -79 21 -134 66 -169 31
-24 38 -22 63 27 l19 36 -31 38 c-26 32 -29 43 -24 80 9 65 50 98 123 98 48 0
59 -4 85 -29 24 -25 29 -38 29 -79 0 -39 -5 -55 -25 -76 l-26 -28 22 -36 c13
-21 24 -39 25 -40 9 -13 49 16 72 51 23 37 27 52 27 122 0 55 -5 91 -17 115
-21 43 -74 95 -111 109 -42 16 -147 13 -182 -5z"/>
<path d="M590 2577 c-94 -26 -157 -85 -187 -173 -12 -34 -14 -68 -9 -142 4
-76 21 -245 25 -259 2 -6 58 -2 110 7 54 9 242 32 369 46 34 3 64 10 67 15 7
10 -10 148 -32 264 -34 185 -180 288 -343 242z m162 -139 c21 -12 47 -36 58
-53 21 -35 43 -137 38 -180 l-3 -30 -125 -17 c-69 -9 -146 -17 -171 -17 l-47
-1 -7 90 c-7 82 -5 94 16 137 43 86 155 119 241 71z"/>
<path d="M4065 2268 c-17 -58 -14 -63 46 -73 39 -7 83 -53 77 -81 -2 -8 -43
-32 -92 -54 -49 -22 -90 -41 -93 -43 -6 -7 -34 -120 -31 -128 2 -5 17 -2 33 6
150 68 238 104 245 100 4 -2 34 -48 65 -100 32 -52 61 -95 65 -95 7 0 30 90
30 118 0 10 -25 61 -56 116 -30 54 -53 100 -50 103 5 6 45 -3 203 -44 l111
-29 16 55 c9 30 14 57 11 59 -2 2 -28 10 -57 17 -46 11 -165 42 -423 109 -32
9 -65 16 -72 16 -7 0 -19 -23 -28 -52z"/>
<path d="M3965 1821 c-82 -37 -155 -149 -155 -237 0 -50 13 -61 57 -47 21 7
29 18 34 44 8 50 37 106 66 124 34 23 93 32 93 14 0 -7 -34 -71 -75 -141 -41
-70 -75 -131 -75 -136 0 -9 19 -19 73 -41 148 -59 311 102 275 273 -19 91
-113 166 -208 166 -25 0 -63 -9 -85 -19z m184 -150 c23 -15 25 -92 2 -128 -22
-35 -87 -62 -114 -47 -13 8 -8 22 35 97 28 48 53 87 57 87 3 0 12 -4 20 -9z"/>
<path d="M920 1783 c-40 -16 -93 -57 -120 -95 -27 -36 -30 -49 -30 -113 0 -61
4 -77 29 -116 18 -30 43 -52 70 -65 l42 -20 -85 -57 -86 -57 17 -28 c9 -15 24
-37 33 -49 l17 -21 94 61 c52 34 163 106 247 161 l151 98 -30 45 c-24 34 -35
42 -50 38 -16 -5 -19 -1 -19 27 -1 69 -68 163 -137 189 -26 10 -119 11 -143 2z
m168 -148 c16 -19 22 -39 22 -72 0 -39 -5 -50 -35 -79 -63 -59 -148 -52 -187
17 -22 37 -23 61 -4 98 41 79 149 98 204 36z"/>
<path d="M3692 1477 c-18 -18 -32 -36 -32 -41 0 -4 38 -50 85 -101 76 -84 85
-99 85 -133 0 -50 -47 -102 -93 -102 -27 0 -47 16 -130 100 l-99 100 -44 -36
-44 -36 19 -27 c44 -61 207 -209 244 -220 80 -27 192 45 217 139 11 39 12 41
29 26 16 -15 20 -13 56 24 44 45 47 35 -45 135 -140 151 -194 205 -205 205 -6
0 -25 -15 -43 -33z"/>
<path d="M1300 1356 c0 -42 2 -44 33 -50 75 -14 139 -102 117 -160 l-10 -27
-62 55 c-35 30 -90 78 -123 106 l-60 51 -27 -30 c-14 -16 -34 -54 -44 -84 -16
-51 -16 -57 1 -106 42 -129 185 -203 298 -156 127 53 175 193 108 311 -44 75
-129 134 -196 134 -35 0 -35 0 -35 -44z m16 -217 c41 -34 74 -65 74 -70 0 -13
-36 -29 -65 -29 -31 0 -64 16 -87 43 -20 23 -26 117 -7 117 6 0 44 -28 85 -61z"/>
<path d="M3270 1143 c-52 -17 -106 -52 -123 -80 -21 -36 -32 -41 -41 -18 -5
13 -13 12 -56 -10 -27 -14 -50 -27 -50 -28 0 -2 15 -34 34 -73 19 -38 75 -153
125 -256 49 -104 95 -188 101 -188 14 0 100 39 100 45 0 3 -18 41 -40 85 -22
44 -40 84 -40 90 0 5 12 7 28 4 70 -14 176 49 208 124 34 82 6 190 -66 256
-51 46 -128 67 -180 49z m70 -116 c39 -20 70 -74 70 -122 0 -37 -5 -48 -35
-74 -51 -44 -105 -43 -150 2 -60 60 -56 149 9 188 36 22 71 24 106 6z"/>
<path d="M1675 991 c-47 -64 -123 -168 -170 -231 -46 -63 -84 -118 -85 -121 0
-3 18 -11 41 -18 23 -7 47 -15 54 -17 7 -3 54 52 116 137 57 78 114 154 126
168 l22 26 1 -207 c0 -232 -3 -221 76 -233 l39 -6 119 161 c65 88 120 160 123
160 2 0 3 -91 3 -201 -1 -111 2 -205 7 -209 7 -6 100 -40 110 -40 2 0 3 132 3
293 l0 292 -53 18 c-30 9 -60 17 -68 17 -8 0 -66 -70 -129 -156 l-115 -156 -3
199 -2 199 -66 21 -65 20 -84 -116z"/>
<path d="M2652 937 c-37 -39 -28 -88 20 -113 74 -38 144 54 88 114 -28 30 -80
29 -108 -1z"/>
</g>
</svg>
